<?xml version="1.0" encoding="utf-8"?>
<!-- Generator: Adobe Illustrator 24.3.0, SVG Export Plug-In . SVG Version: 6.00 Build 0)  -->
<svg version="1.1" id="fd59ce54-f850-4dfc-bc34-dd7d379d600e"
	 xmlns="http://www.w3.org/2000/svg" xmlns:xlink="http://www.w3.org/1999/xlink" x="0px" y="0px" viewBox="0 0 1074.4 584.2"
	 style="enable-background:new 0 0 1074.4 584.2;" xml:space="preserve">
<style type="text/css">
	.st0{fill:#AF9366;}
	.st1{fill:#FF9A6E;}
	.st2{fill:#EAD8B0;}
	.st3{fill:#FFC08D;}
	.st4{fill:#EAE6CA;}
	.st5{fill:#D6C49A;}
	.st6{fill:#FFF9DE;}
	.st7{fill:#E5D4B1;}
	.st8{fill:#FFAF73;}
	.st9{fill:#F4AD7D;}
	.st10{fill:#FFCD9C;}
	.st11{opacity:0.5;fill:#BC5642;enable-background:new    ;}
	.st12{fill:#FFF4D7;}
	.st13{fill:#EF5050;}
	.st14{fill:#DB6A4B;}
	.st15{fill:#512C27;}
	.st16{fill:#492622;}
	.st17{fill:#512F2F;}
	.st18{fill:#2D1811;}
	.st19{fill:#5B362A;}
	.st20{fill:#1E8449;}
	.st21{fill:none;stroke:#3F3D56;stroke-miterlimit:10;}
</style>
<g>
	<path class="st0" d="M281.1,527.3c0,0,97.8,14.1,123.6-25.3l-18-36.7C386.7,465.3,285.5,514.1,281.1,527.3z"/>
	<path class="st1" d="M320.3,384.9c0,0-19.9,21.9-25.4,41.5c-5.5,19.7,1.7,116.6,1.7,116.6h4.6L320.3,384.9z"/>
	<path class="st2" d="M292.3,544.7h25.8c0,0-13.4-13.6-17.9-12.6C295.8,533.1,292.3,544.7,292.3,544.7z"/>
	<path class="st3" d="M381.7,397.8c0,0-14,20.1-14,38.2c-0.1,18.1,33.5,107.2,33.5,107.2h4.6L381.7,397.8z"/>
	<path class="st1" d="M400.9,513.6l-19.2-115.9c0,0-14,20.1-14,38.2c-0.1,12.6,16.2,59.7,26.1,87.1
		C395.2,517.7,397.8,514,400.9,513.6z"/>
	<path class="st4" d="M280.5,526.5c0,0,62.7-14.8,83.7-23.9c21-9.1,29.6-3.6,40.6-2.1c0,0-29-173.3-29.4-244.7
		c-0.4-68.9-14.7-124.1-32.5-129.7c-17.7-5.6-62.7-0.5-66.4,20c-3.7,20.6,5.3,136.2,6,147.6C284.7,328.2,271.8,453.2,280.5,526.5z"
		/>
	<path class="st5" d="M321.3,339.9c-4.6-59.8-0.5-200.7-44.5-195.5c-13.9,26.3,3.3,92.6-2.3,150.4c-3.3,34.5-2.7,158.4,5.9,231.7
		c0,0,20.7-4.9,42.4-10.8C316.3,484.7,324.5,381.9,321.3,339.9z"/>
	<path class="st6" d="M365.3,201.7c-0.1-0.6-8.6-62.6-31.9-75.2l3.2-0.7c23.8,12.8,33.1,71.6,33.4,74.2L365.3,201.7z"/>
	<path class="st2" d="M400.3,544.7h29.5c0,0-21-12.5-26.5-11.6C397.8,534,400.3,544.7,400.3,544.7z"/>
	<path class="st7" d="M383.4,496c-9.2-23.6-27.9-79.8-30.1-98.6c0,0,3.3,58.6,1.2,109.3C354.6,506.8,379.3,498.3,383.4,496z"/>
	<path class="st4" d="M324.5,287.8l-18.8,69.9c0,0,4-106.1,15.1-126.2C331.9,211.6,324.5,287.8,324.5,287.8z"/>
	<path class="st6" d="M347.5,128.6c0-2.8-9.9-5.1-22-5.1c-12.2,0-22,2.3-22,5.1c0,2.8,9.9,5.1,22,5.1
		C337.6,133.6,347.5,131.4,347.5,128.6z"/>
	<polygon class="st8" points="339.4,96.7 308.7,103.7 308.7,129.1 340.8,129.1 	"/>
</g>
<g>
	<path class="st4" d="M208.7,225.1c-10-4.9,66.9-97.8,85.1-95.3c0,0,32.3,11.2,6.8,64.6C300.6,194.3,249,244.8,208.7,225.1z"/>
	<path class="st5" d="M216.5,224.7c39.6,17.8,84.2-30.4,84.2-30.4c1.5-2.7,2.9-5.4,4.1-8C265,222.9,214.8,224,216.5,224.7z"/>
	<path class="st9" d="M310.1,323.1c0.5-1-1-2.2-3-3.3c-2-1.1-3.6-1.6-4.1-0.6s0.6,2.7,2.6,3.7C307.5,324,309.6,324,310.1,323.1z"/>
	<path class="st9" d="M307.8,325.2c0.5-1-1-2.2-3-3.3c-2-1.1-3.6-1.6-4.1-0.6s0.6,2.7,2.6,3.7C305.2,326.1,307.2,326.1,307.8,325.2z
		"/>
	<path class="st10" d="M313.4,316.6c-0.9-0.7-3,1.3-5.1,3.8c-2.1,2.5-3.5,4.6-2.6,5.3c0.9,0.7,3.3-0.7,5.4-3.3
		C313.2,320,314.2,317.3,313.4,316.6z"/>
	<path class="st10" d="M297.7,305.3c4.1,2.5,17.6,9.2,15.4,14.1c-1.9,4.4-10.1,6.7-18.6-10.8L297.7,305.3z"/>
	<path class="st4" d="M208.1,224.6c0,0,22.2,35.6,83.7,92.6c0,0,7-0.3,14.3-14.8c0,0-24.8-70-56.9-98.7
		C249.1,203.7,211.4,208.7,208.1,224.6z"/>
	<g>
		<path class="st5" d="M286.7,256c-10.1-18.9-23.3-39.5-37.6-52.3C249.1,203.7,269.8,237.6,286.7,256z"/>
	</g>
</g>
<path class="st11" d="M355.4,138.9c-2.5-4.5-5.1-8-7.9-10.3c0,0,0,0,0-0.1c0-1.5-2.7-2.8-6.9-3.7l-0.5-13.2c-3.9-2.6-8.2-5.1-13-7.4
	c-2.4-1.2-4.7-2.2-7.1-3.1l-11.3,2.6v21.6c-0.2,0.1-0.4,0.1-0.7,0.2c-1.3,0.2-2.6,0.5-3.9,0.8c3,1.8,6.2,3.6,9.6,5.3
	C331.5,140.2,348.5,143,355.4,138.9z"/>
<g>
	<g>
		<path class="st12" d="M289.1,49.8c-7.2,27.9,13.9,46.8,23.1,35.1C327.1,66,296.2,21.9,289.1,49.8z"/>
		<g>
			<path class="st13" d="M290.9,72.4h0.2l-1.5-8.9l-1.9,0.2c0.2,3.5,0.9,6.8,2,9.7l1.4-0.1L290.9,72.4z"/>
			<path class="st13" d="M297.4,72.6h-0.2l-0.1-0.9l-5.9,0.6H291l0.1,0.9l0.8,5.1c0.7,1.3,1.6,2.5,2.4,3.6l4.6-0.5L297.4,72.6z"/>
			<path class="st13" d="M295.7,62.7l-1.5-8.9H294l-0.1-0.9l-5.6,0.6c-0.1,0.5-0.2,1.1-0.3,1.6l1.4,8.2L295.7,62.7z"/>
			<path class="st13" d="M292.4,42.8c-0.3,0.3-0.6,0.7-0.9,1.2l1.1-0.1L292.4,42.8z"/>
			<path class="st13" d="M298.7,81.6l0.8,5c2.2,1.3,4.6,2,6.8,1.7l-1.2-7.4L298.7,81.6z"/>
			<polygon class="st13" points="297.4,72.6 303.3,72 303.2,71.1 303.4,71.1 301.9,62.2 295.5,62.9 297,71.7 297.2,72.6 			"/>
			<polygon class="st13" points="294.3,53.8 300.2,53.2 300,52.3 300.2,52.3 298.8,43.4 292.4,44.1 293.9,53 294,53.8 			"/>
			<polygon class="st13" points="303.3,72 304.8,80.8 311.1,80.2 309.7,71.3 309.4,71.3 309.3,70.4 303.4,71.1 303.2,71.1 			"/>
			<polygon class="st13" points="300.2,53.2 301.6,62 308,61.4 306.5,52.5 306.3,52.5 306.1,51.7 300.2,52.3 300,52.3 			"/>
			<path class="st13" d="M302.4,42.9c-1.4-1-2.9-1.7-4.3-1.9l0.4,2.4L302.4,42.9z"/>
			<path class="st13" d="M311.8,85.3c0.1-0.2,0.3-0.3,0.4-0.5c1.2-1.5,2.1-3.2,2.7-5l-4,0.4L311.8,85.3z"/>
			<polygon class="st13" points="309.7,71.3 315.6,70.7 315.4,69.8 315.6,69.8 314.2,60.9 307.8,61.6 309.3,70.4 309.4,71.3 			"/>
			<path class="st13" d="M306.3,52.5h0.2l3.8-0.4c-1.6-2.7-3.4-5.1-5.3-7l1.1,6.6L306.3,52.5z"/>
			<path class="st13" d="M315.4,69.8l0.1,0.9l0.6,3.4c0.1-1.4,0.1-2.9,0-4.3l-0.5,0.1L315.4,69.8z"/>
			<path class="st13" d="M314.3,60.7c-0.2-0.6-0.4-1.3-0.7-1.9l0.3,1.9H314.3z"/>
		</g>
		<path class="st11" d="M288.8,47.8c-7.2,27.9,14.8,50.9,24.1,39.2C327.9,68.2,296,20,288.8,47.8z"/>
		<path class="st11" d="M292.8,46.9c-7.2,27.9,14.8,50.9,24.1,39.2C331.9,67.2,300,19,292.8,46.9z"/>
	</g>
	<g>
		<path class="st12" d="M356.3,48.5c-15.5,11.5-14.4,38.2-5.1,38C366.3,86,371.9,37,356.3,48.5z"/>
		<g>
			<path class="st13" d="M347.2,63.4l0.1,0.1l3.2-6.4l-1-1.3c-1.5,2.3-2.6,4.8-3.4,7.3l0.7,0.9L347.2,63.4z"/>
			<path class="st13" d="M350,68.3l-0.1-0.2l0.3-0.6l-2.9-3.9l-0.1-0.1l-0.3,0.6l-1.9,3.7c-0.2,1.3-0.4,2.7-0.5,3.9l2.3,3L350,68.3z
				"/>
			<path class="st13" d="M353.7,61.1l3.2-6.4l-0.1-0.2l0.3-0.6l-2.8-3.7c-0.3,0.3-0.6,0.5-0.8,0.8l-3,5.9L353.7,61.1z"/>
			<path class="st13" d="M360.9,46.8c-0.3,0-0.6,0-0.9,0l0.6,0.7L360.9,46.8z"/>
			<path class="st13" d="M346.6,74.6l-1.8,3.6c0.4,2.5,1.2,4.5,2.3,6l2.7-5.3L346.6,74.6z"/>
			<polygon class="st13" points="350,68.3 353,72.2 353.3,71.6 353.4,71.7 356.6,65.3 353.5,61.1 350.2,67.5 349.9,68.1 			"/>
			<polygon class="st13" points="356.9,54.7 359.8,58.6 360.1,58 360.3,58.2 363.5,51.7 360.3,47.5 357.1,53.9 356.8,54.5 			"/>
			<polygon class="st13" points="353,72.2 349.7,78.6 352.9,82.8 356.1,76.4 356,76.3 356.3,75.6 353.4,71.7 353.3,71.6 			"/>
			<polygon class="st13" points="359.8,58.6 356.6,65 359.7,69.3 363,62.9 362.9,62.7 363.2,62.1 360.3,58.2 360.1,58 			"/>
			<path class="st13" d="M365.4,54.1c-0.2-1.7-0.6-3.1-1.1-4.3l-0.9,1.7L365.4,54.1z"/>
			<path class="st13" d="M350.9,86.4c0.1,0,0.3,0,0.4,0c1.2,0,2.3-0.4,3.4-1l-2-2.6L350.9,86.4z"/>
			<polygon class="st13" points="356.1,76.4 359,80.4 359.4,79.7 359.5,79.9 362.7,73.5 359.6,69.2 356.3,75.6 356,76.3 			"/>
			<path class="st13" d="M362.9,62.7l0.1,0.1l1.9,2.6c0.5-2.8,0.7-5.6,0.7-8.1l-2.4,4.7L362.9,62.7z"/>
			<path class="st13" d="M359.4,79.7l-0.3,0.6l-1.2,2.4c0.7-0.8,1.3-1.6,1.9-2.6l-0.2-0.3L359.4,79.7z"/>
			<path class="st13" d="M362.8,73.4c0.2-0.5,0.4-1.1,0.5-1.6l-0.7,1.4L362.8,73.4z"/>
		</g>
		<path class="st11" d="M357.1,47.2c-15.5,11.5-15.8,41.4-6.5,41.1C365.7,87.8,372.6,35.6,357.1,47.2z"/>
		<path class="st11" d="M352.8,48.7c-15.5,11.5-15.8,41.4-6.5,41.1C361.4,89.4,368.3,37.2,352.8,48.7z"/>
	</g>
	<g>
		<path class="st8" d="M355.2,81.9c0.6-5.9,3.4-9.1,6.1-9.1c2.8,0,4.4,3.2,3.8,9.1s-5.1,8.7-7.9,8.7
			C354.5,90.5,354.6,87.8,355.2,81.9z"/>
		<path class="st14" d="M354.6,81.9c0.5-4.3,3-6.6,5.4-6.6s3.9,2.3,3.4,6.6c-0.5,4.3-4.5,6.2-6.9,6.2
			C354,88.1,354.1,86.2,354.6,81.9z"/>
		<path class="st8" d="M355.9,84.4c0.3-2.1,1.7-3.3,3-3.3c1.3,0,2.2,1.1,1.9,3.3c-0.3,2.1-2.5,3.1-3.9,3.1
			C355.6,87.5,355.6,86.5,355.9,84.4z"/>
		<path class="st8" d="M300.8,81.6c-0.9-5.9-3.9-8.8-6.8-8.6c-2.9,0.2-4.5,3.5-3.6,9.4s5.7,8.2,8.6,8
			C301.9,90.2,301.7,87.5,300.8,81.6z"/>
		<path class="st14" d="M299.4,81.8c-0.6-4.2-2.8-6.4-4.9-6.2c-2.1,0.2-3.3,2.6-2.6,6.8c0.6,4.2,4.1,6,6.2,5.8
			C300.2,88,300,86,299.4,81.8z"/>
		<path class="st8" d="M298.5,84.4c-0.3-2.4-1.6-3.6-2.7-3.5c-1.2,0.1-1.8,1.4-1.5,3.8c0.3,2.4,2.3,3.3,3.5,3.2
			C299,87.9,298.9,86.8,298.5,84.4z"/>
		<path class="st15" d="M299.9,94.9c0,0-6-57.3-1.1-64.1c4.9-6.8,33.8-11.3,38.4-10.2c9.9,2.4,8.1,9.4,8.1,9.4s4.9,0,8.3,2.3
			s7.9,34.8,2.2,59.4C350.2,116.4,299.9,94.9,299.9,94.9z"/>
		<path class="st16" d="M331.5,70.4c-15,0-28.1-8.5-34.6-20.9c0.3,19.1,0.7,45.1,0.7,45.1s46.1,2.4,60.2-1.5
			c0.4-10.7,1-23.2,0.6-33.5C351.5,66.3,342,70.4,331.5,70.4z"/>
		<path class="st8" d="M298.7,107.3c0.4,3.2,13.6,16.9,28.5,16.9c15,0,27.4-12.5,30-17.6s-7.9-69.7-14-75.1s-30.7-1.8-32.8,1
			C305.4,39.2,297.1,94.7,298.7,107.3z"/>
		<path class="st15" d="M357.8,66.3l-3.4,0.7c-0.3,13.2-4.7,22.3-10.1,22.3c-5.4,0-10.1-4.4-15.2-4.4c-5.1,0-7.1,4.4-17.9,4.7
			c-10.8,0.3-8.8-7.4-10.1-21.3l-2,1c0,0-6.1,24.3-1.7,38.5s30.7,20.6,30.7,20.6c19.6-1.3,29.4-18.6,30.4-20.6
			C359.5,105.8,357.8,66.3,357.8,66.3z"/>
		<path class="st8" d="M304.8,59.5c2.2,1,10.7-20,12.5-23.5c1.8-3.5,1.5-7.2-0.7-8.1c-2.2-1-5.3,1.1-7.1,4.6
			C307.6,36,302.6,58.6,304.8,59.5z"/>
		<path class="st8" d="M350.6,58c2.3-0.7-3.7-22-5-25.7c-1.3-3.7-4.2-6.1-6.5-5.4c-2.3,0.7-3,4.3-1.7,8
			C338.7,38.6,348.3,58.7,350.6,58z"/>
		<path class="st15" d="M338.6,29.8c0-2.2-4.9-4.1-10.9-4.1s-10.9,1.8-10.9,4.1c0,2.2,4.9,4.1,10.9,4.1
			C333.7,33.8,338.6,32,338.6,29.8z"/>
		<path class="st14" d="M323,90.6c0,0.4,3.6,2.5,4.8,2.5c2.1,0,4.7-2,4.8-2.7c0.2-1.6-3.3-19.8-4.5-20
			C326.8,70.2,322.9,88.2,323,90.6z"/>
		<path class="st8" d="M325.3,91.1c0,0.4,2,1.1,2.7,1.1c1.2,0,2.6-0.6,2.7-1.4c0.1-1.8,1.1-22.1-2.5-21.9
			C324.1,69.1,325.2,88.5,325.3,91.1z"/>
		<path class="st15" d="M334.5,28.4c4.1-1.8,9.5-1.6,8,6.2c0,0-2-4-8.6-1.6L334.5,28.4z"/>
		<path class="st16" d="M329.1,121.7c0-1.4-0.7-2.5-1.5-2.5c-0.8,0-1.5,1.1-1.5,2.5s0.7,1.5,1.5,1.5
			C328.4,123.2,329.1,123.1,329.1,121.7z"/>
		<g>
			<path class="st15" d="M321,58.8c0.7,1,1.1,2.2,1,3.1c0,2.6-13.1,5.5-14.9,2.5l-1.1-1.9c-1.3-2.1,3.2-2.1,6.6-3.7
				c3.3-1.5,5.4-4.7,6.7-2.8L321,58.8z"/>
			<path class="st15" d="M333,58.1c-0.7,1-1.2,2.1-1.2,3c-0.1,2.6,13,6.8,15,4l1.3-1.7c1.5-2-3.1-2.4-6.5-4.3
				c-3.2-1.8-5.2-5.3-6.6-3.4L333,58.1z"/>
			<path class="st16" d="M330.6,113.1c0-0.7-1.2-1.2-2.8-1.2c-1.5,0-2.8,0.5-2.8,1.2s1.2,0.7,2.8,0.7
				C329.4,113.9,330.6,113.8,330.6,113.1z"/>
			<path class="st17" d="M316.6,74.4c0-2.8-1.6-5-3.6-5c-1.9,0-3.5,2.3-3.5,5c0,2.8,1.6,5.1,3.6,5.1C315,79.4,316.6,77.2,316.6,74.4
				z"/>
			<path class="st17" d="M342.6,74.4c0-2.8-1.5-5.1-3.2-5.1c-1.8,0-3.2,2.3-3.1,5.1c0,2.8,1.5,5,3.2,5
				C341.3,79.4,342.7,77.2,342.6,74.4z"/>
			<polygon class="st14" points="342.2,79.1 336.2,77.6 335.9,78.6 341.5,81.7 			"/>
			<polygon class="st14" points="316.2,78 310.1,78.9 310.5,81.8 316.5,79.2 			"/>
			<path class="st18" d="M332.6,101.9c0-3.9-2.2-7-4.9-7c-2.7,0-4.9,3.1-4.9,7c0,3.9,2.2,7,4.9,7
				C330.5,108.9,332.6,105.7,332.6,101.9z"/>
		</g>
	</g>
	<g>
		<path class="st11" d="M356.9,41.2h-60.1c0,1.9,0,4,0,6.1l0,0c0,1.6,0.1,9,0.2,10.7c22.4-7.5,37.7-8,61.4-0.6
			C358.1,53.2,357.4,44.4,356.9,41.2z"/>
	</g>
	<g>
		<path class="st12" d="M287.1,47.3c2.6-2.6,3.4-6.1,2.5-8.3c-1.3-3.3,0.8-11.2,4.3-15.6c12.1-15.2,61.9-13,68.6,7.6
			c1.3,4,0.1,11.6,2.4,17.2L287.1,47.3z"/>
		<g>
			<path class="st13" d="M287.1,47.3h0.7l0.2-1C287.7,46.6,287.5,47,287.1,47.3z"/>
			<path class="st13" d="M293.5,43.1h0.2l0.7-5l-5-0.4c0.1,0.4,0.1,0.8,0.3,1.2c0.5,1.2,0.4,2.8-0.1,4.4l3.9,0.3V43.1z"/>
			<polygon class="st13" points="298.7,44 298.7,43.5 293.7,43.1 293.5,43.1 293.5,43.6 293,47.4 298.5,47.4 298.9,44 			"/>
			<polygon class="st13" points="298.9,44 303.8,44.4 303.9,43.9 304.1,43.9 304.5,38.9 299.3,38.5 298.7,43.5 298.7,44 			"/>
			<polygon class="st13" points="309,44.7 309,44.2 304.1,43.9 303.9,43.9 303.8,44.4 303.5,47.5 309,47.5 309.2,44.8 			"/>
			<polygon class="st13" points="309.2,44.8 314.1,45.1 314.1,44.6 314.3,44.6 314.6,39.6 309.4,39.3 309,44.2 309,44.7 			"/>
			<polygon class="st13" points="319.2,45.5 319.3,45 314.3,44.6 314.1,44.6 314.1,45.1 314,47.6 319.4,47.7 319.4,45.5 			"/>
			<polygon class="st13" points="319.4,45.5 324.3,45.8 324.4,45.3 324.5,45.4 324.6,40.4 319.4,40 319.3,45 319.2,45.5 			"/>
			<polygon class="st13" points="329.4,46.2 329.4,45.7 324.5,45.4 324.4,45.3 324.3,45.8 324.3,47.7 329.7,47.8 329.6,46.2 			"/>
			<polygon class="st13" points="329.6,46.2 334.5,46.6 334.5,46.1 334.7,46.1 334.6,41.1 329.4,40.7 329.4,45.7 329.4,46.2 			"/>
			<polygon class="st13" points="339.6,46.9 339.6,46.4 334.7,46.1 334.5,46.1 334.5,46.6 334.6,47.8 339.8,47.9 339.8,47 			"/>
			<polygon class="st13" points="339.8,47 344.7,47.3 344.6,46.8 344.8,46.8 344.5,41.8 339.3,41.5 339.6,46.4 339.6,46.9 			"/>
			<polygon class="st13" points="349.7,47.7 349.7,47.2 344.8,46.8 344.6,46.8 344.7,47.3 344.7,47.9 349.9,48 349.9,47.7 			"/>
			<polygon class="st13" points="349.9,47.7 354.7,48 354.7,47.5 354.9,47.5 354.3,42.6 349.2,42.2 349.7,47.2 349.7,47.7 			"/>
			<polygon class="st13" points="354.9,47.5 354.7,47.5 354.7,48 354.7,48.1 359.7,48.1 359.7,47.9 			"/>
			<path class="st13" d="M359.7,47.9v0.2l5.1,0.1l-0.1-0.7c-0.4-1.3-0.8-2.7-0.9-4.2L359,43L359.7,47.9z"/>
			<path class="st13" d="M290.3,32.5h-0.4c-0.5,2-0.7,3.8-0.5,5.3h0.1L290.3,32.5z"/>
			<path class="st13" d="M295.3,32.7l0.6-4.5h-0.2l0.1-0.4l-4.2-0.3c-0.4,0.9-0.8,1.9-1.1,2.9l-0.3,2.1L295.3,32.7z"/>
			<path class="st13" d="M296.9,20.5c-1,0.8-1.9,1.7-2.7,2.6l2.3,0.2L296.9,20.5z"/>
			<polygon class="st13" points="294.4,38 299.6,38.4 300.2,33.2 295.1,32.8 			"/>
			<polygon class="st13" points="295.9,28.2 300.6,28.5 300.6,28.1 300.8,28.1 301.3,23.7 296.4,23.3 295.8,27.7 295.7,28.2 			"/>
			<path class="st13" d="M301.7,19h0.2l0.2-1.5c-1.1,0.5-2.2,1.1-3.2,1.7l2.8,0.2V19z"/>
			<polygon class="st13" points="300.6,28.5 300,33.1 305.2,33.5 305.6,28.9 305.4,28.9 305.4,28.4 300.8,28.1 300.6,28.1 			"/>
			<polygon class="st13" points="306.3,19.4 301.8,19 301.7,19 301.6,19.4 301.1,23.6 306,24 306.4,19.8 306.3,19.8 			"/>
			<polygon class="st13" points="304.5,38.8 309.7,39.2 310.1,33.9 305,33.5 			"/>
			<polygon class="st13" points="305.6,28.9 310.2,29.3 310.3,28.8 310.4,28.8 310.8,24.4 305.9,24.1 305.4,28.4 305.4,28.9 			"/>
			<path class="st13" d="M306.3,19.8h0.2l4.5,0.4v-0.4h0.2l0.3-4l-3.6-0.3c-0.4,0.1-0.8,0.2-1.2,0.3l-0.3,3.6L306.3,19.8z"/>
			<polygon class="st13" points="310.2,29.3 309.9,33.8 315,34.2 315.2,29.6 315,29.6 315.1,29.2 310.4,28.8 310.3,28.8 			"/>
			<polygon class="st13" points="315.5,20.1 311.1,19.7 310.9,19.7 310.9,20.1 310.6,24.4 315.5,24.7 315.7,20.5 315.5,20.5 			"/>
			<path class="st13" d="M315.9,16l0.1-2.2c-1.6,0.2-3.2,0.5-4.7,0.8l-0.1,1L315.9,16z"/>
			<polygon class="st13" points="314.5,39.5 319.7,39.9 319.9,34.7 314.8,34.3 			"/>
			<polygon class="st13" points="315.2,29.6 319.9,30 319.9,29.5 320,29.6 320.2,25.2 315.3,24.8 315.1,29.2 315,29.6 			"/>
			<polygon class="st13" points="320.3,20.5 320.5,16.4 315.8,16 315.5,20.1 315.5,20.5 315.7,20.5 320.1,20.9 320.2,20.4 			"/>
			<polygon class="st13" points="319.9,30 319.7,34.6 324.8,34.9 324.8,30.4 324.6,30.3 324.6,29.9 320,29.6 319.9,29.5 			"/>
			<polygon class="st13" points="324.8,20.8 320.3,20.5 320.2,20.4 320.1,20.9 320,25.1 324.9,25.5 324.9,21.2 324.8,21.2 			"/>
			<path class="st13" d="M325,16.7v-3.4c-1.5,0-3.1,0-4.6,0.1l-0.1,2.9L325,16.7z"/>
			<polygon class="st13" points="324.5,40.3 329.7,40.6 329.6,35.4 324.6,35 			"/>
			<polygon class="st13" points="324.8,30.4 329.4,30.7 329.4,30.3 329.6,30.3 329.6,25.9 324.7,25.5 324.6,29.9 324.6,30.3 			"/>
			<polygon class="st13" points="329.5,21.2 329.5,17.1 324.8,16.8 324.8,20.8 324.8,21.2 324.9,21.2 329.3,21.6 329.3,21.2 			"/>
			<polygon class="st13" points="329.4,30.7 329.5,35.3 334.5,35.7 334.4,31.1 334.2,31.1 334.2,30.6 329.6,30.3 329.4,30.3 			"/>
			<polygon class="st13" points="333.9,21.5 329.5,21.2 329.3,21.2 329.3,21.6 329.4,25.8 334.2,26.2 334.1,21.9 333.9,21.9 			"/>
			<path class="st13" d="M334,17.4l-0.1-3.6c-1.5-0.2-3-0.3-4.6-0.4V17L334,17.4z"/>
			<polygon class="st13" points="334.5,41 339.6,41.4 339.4,36.1 334.3,35.7 			"/>
			<polygon class="st13" points="334.4,31.1 339,31.4 338.9,31 339.1,31 338.9,26.6 334.1,26.2 334.2,30.6 334.2,31.1 			"/>
			<polygon class="st13" points="338.7,21.9 338.4,17.8 333.8,17.5 333.9,21.5 333.9,21.9 334.1,21.9 338.5,22.3 338.5,21.9 			"/>
			<polygon class="st13" points="339,31.4 339.2,36 344.2,36.4 343.9,31.8 343.7,31.8 343.7,31.4 339.1,31 338.9,31 			"/>
			<polygon class="st13" points="343,22.2 338.7,21.9 338.5,21.9 338.5,22.3 338.7,26.5 343.5,26.9 343.2,22.7 343.1,22.6 			"/>
			<path class="st13" d="M342.9,18.1l-0.2-2.5c-1.5-0.4-3-0.8-4.6-1.1l0.2,3.2L342.9,18.1z"/>
			<polygon class="st13" points="344.4,41.7 349.5,42.1 349,36.8 344,36.5 			"/>
			<polygon class="st13" points="343.9,31.8 348.4,32.2 348.4,31.7 348.6,31.7 348.2,27.3 343.4,27 343.7,31.4 343.7,31.8 			"/>
			<polygon class="st13" points="347.7,22.6 347.4,18.5 342.8,18.2 343,22.2 343.1,22.6 343.2,22.7 347.6,23 347.6,22.6 			"/>
			<polygon class="st13" points="348.4,32.2 348.8,36.7 353.8,37.1 353.3,32.5 353.1,32.5 353.1,32.1 348.6,31.7 348.4,31.7 			"/>
			<polygon class="st13" points="352.1,23 347.7,22.6 347.6,22.6 347.6,23 348,27.2 352.8,27.6 352.3,23.4 352.2,23.4 			"/>
			<path class="st13" d="M350.9,18.7c-1.2-0.6-2.5-1.2-3.8-1.7l0.1,1.4L350.9,18.7z"/>
			<polygon class="st13" points="354.2,42.4 359.3,42.8 358.6,37.6 353.7,37.2 			"/>
			<polygon class="st13" points="353.3,32.5 357.9,32.9 357.8,32.4 358,32.4 357.4,28 352.6,27.7 353.1,32.1 353.1,32.5 			"/>
			<path class="st13" d="M352.2,23.4h0.2l4.4,0.3l-0.1-0.4h0.2l-0.1-0.8c-1.5-1.3-3.2-2.4-5-3.4l0.4,3.8L352.2,23.4z"/>
			<path class="st13" d="M362.6,33.2l-0.1-0.4l-4.5-0.3h-0.2l0.1,0.4l0.6,4.6l5,0.4v-0.1l-0.7-4.4L362.6,33.2z"/>
			<path class="st13" d="M356.6,23.3l0.1,0.4l0.5,4.2l4.2,0.3c-1-1.8-2.2-3.4-3.8-4.9l-0.9-0.1L356.6,23.3z"/>
			<path class="st13" d="M363.5,39.4c0-0.5-0.1-1-0.1-1.5h-0.2L363.5,39.4z"/>
			<path class="st13" d="M362.6,33.2h0.2h0.3c-0.1-0.8-0.2-1.6-0.5-2.3c-0.2-0.5-0.4-1-0.6-1.5l0.5,3.3L362.6,33.2z"/>
		</g>
		<path class="st19" d="M288.5,37.9c-2.6,0.6-2.1,4.7,0.3,4.9l75.8,0.4c2.4-0.2,3.1-5.2,0-5.7L288.5,37.9z"/>
	</g>
</g>
<g>
	<path class="st4" d="M446.6,203.2c4.2-7.1-50.8-49-90.2-57.8c0,0,0.5,43.6,8.1,58.9C364.6,204.3,429.7,232,446.6,203.2z"/>
	<path class="st5" d="M398.3,203.3c23.9,8.9,44.7,9.5,48.2-0.9c0.1-0.3,0.2-0.6,0.3-1c0.2,0.7,0.2,1.3-0.1,1.7
		c-16.9,28.8-82,1.1-82,1.1c-3.9-7.9-6-23.4-7-36.5C365.4,181.4,379,196.1,398.3,203.3z"/>
	<path class="st4" d="M432.8,210.8c0,0-21-23.6-3.1-99.6c0,0,7-3.8,16.9,1c0,0,11.3,61.6,6,79.3
		C452.6,191.4,441.4,218.5,432.8,210.8z"/>
	<path class="st5" d="M452,155.5c0.1-1.7,0.2-3.3,0.2-5c1.8,16.1,2.8,32.9,0.4,40.9c0,0-11.2,27-19.8,19.4c0,0-0.3-0.3-0.8-1
		C441.3,209.7,450.1,185.8,452,155.5z"/>
	<path class="st5" d="M422.9,177.9c1.6,9.1,4.3,13.8,5.3,12.2C429.1,188.5,422.9,177.9,422.9,177.9z"/>
	<path class="st5" d="M422.9,177.8c2.5,3.7,5,4.9,5.2,3.8C428.4,180.6,422.9,177.8,422.9,177.8z"/>
</g>
<g>
	<path class="st10" d="M442.8,118c9.8-5,37.2,0.7,36-9.3c-1.1-8.9-15.6-21.9-39.7,1.2L442.8,118z"/>
	<path class="st10" d="M453.6,100.9c0.9,15.7,19.7,15.3,25.6,13.7c6.5-1.7,9-13.6,5.7-18C481.7,92.2,453.3,94.9,453.6,100.9z"/>
	<path class="st10" d="M471.8,95.6c5.7-7,8.8-17.8,5.6-19.4c-3.6-1.8-4.6,8.2-11.2,13.2c-7.2,5.3-11.5,9.1-9.4,12.2
		C458.8,104.4,466.2,102.6,471.8,95.6z"/>
	<path class="st10" d="M488.8,97.2c7.5-2,10.9-4.8,10.1-6.7c-0.8-2-5-0.6-12.5,1.4c-7.5,2-17.6,2.6-16.7,4.6
		C470.4,98.4,481.3,99.2,488.8,97.2z"/>
	<path class="st10" d="M490.4,106.5c8-0.4,14.5-4.3,14.1-6.4c-0.4-2.1-7.6,0.1-15.6,0.5c-8,0.4-13.1,1.1-12.6,3.2
		C476.9,105.8,482.5,106.9,490.4,106.5z"/>
	<path class="st10" d="M485.2,114.6c7.9-0.7,12.1-3,11.7-5c-0.5-2-5.5-0.5-13.5,0.1s-13.5,1.4-13,3.4
		C470.9,115.2,477.2,115.3,485.2,114.6z"/>
</g>
<path class="st20" d="M301.3,405.5h-38.2V292.9c0-12.5-10.1-22.6-22.6-22.6h-9c-12.5,0-22.6,10.1-22.6,22.6l0,0v112.6H101.1
	c-7.2,0-12.8-5.8-12.8-12.8c0-2.1,0.5-4.2,1.5-6l114.1-216.2c5.8-11,1.6-24.7-9.4-30.5c-0.2-0.1-0.6-0.4-0.9-0.5l-6.8-3.2
	c-10.9-5.2-23.8-0.9-29.5,9.7L18,406.6c-2.3,4.4-3.6,9.4-3.6,14.4l0,0c0,16.9,13.7,30.6,30.6,30.6l0,0h164v71.2
	c0,14.9,12.1,27,27,27l0,0l0,0c14.9,0,27-12.1,27-27l0,0v-71.2h38.2c12.7,0,23.1-10.4,23.1-23.1l0,0
	C324.4,415.9,314,405.5,301.3,405.5L301.3,405.5z"/>
<path class="st20" d="M1009.5,405.5h-38.2V292.9c0-12.5-10.1-22.6-22.6-22.6h-9c-12.5,0-22.6,10.1-22.6,22.6l0,0v112.6H809.3
	c-7.2,0-12.8-5.8-12.8-12.8c0-2.1,0.5-4.2,1.5-6L912,170.5c5.8-11,1.6-24.7-9.4-30.5c-0.2-0.1-0.6-0.4-0.9-0.5l-6.8-3.2
	c-10.9-5.2-23.8-0.9-29.5,9.7L726.2,406.6c-2.3,4.4-3.6,9.4-3.6,14.4l0,0c0,16.9,13.7,30.6,30.6,30.6l0,0h164v71.2
	c0,14.9,12.1,27,27,27l0,0l0,0c14.9,0,27-12.1,27-27l0,0v-71.2h38.2c12.7,0,23.1-10.4,23.1-23.1l0,0l0,0
	C1032.6,415.9,1022.2,405.5,1009.5,405.5L1009.5,405.5z"/>
<path class="st21" d="M311.8,392.3h-38.2V279.7c0-12.5-10.1-22.6-22.6-22.6l0,0h-9c-12.5,0-22.6,10.1-22.6,22.6l0,0v112.6H111.7
	c-7.2,0-12.8-5.8-12.8-12.8c0-2.1,0.5-4.2,1.5-6l114.1-216c5.8-11,1.6-24.7-9.4-30.5c-0.2-0.1-0.6-0.4-0.9-0.5l-6.8-3.2
	c-10.9-5.2-23.8-0.9-29.5,9.7L28.6,393.5c-2.3,4.4-3.6,9.4-3.6,14.4l0,0c0,16.9,13.7,30.6,30.6,30.6h164v71.2c0,14.9,12.1,27,27,27
	l0,0l0,0c14.9,0,27-12.1,27-27l0,0v-71.2h38.2c12.7,0,23.1-10.4,23.1-23.1l0,0C334.9,402.7,324.6,392.3,311.8,392.3z"/>
<path class="st21" d="M1029.2,392.3H991V279.7c0-12.5-10.1-22.6-22.6-22.6l0,0h-9c-12.5,0-22.6,10.1-22.6,22.6l0,0v112.6H829
	c-7.2,0-12.8-5.8-12.8-12.8c0-2.1,0.5-4.2,1.5-6l114.2-216c5.8-11,1.6-24.7-9.4-30.5c-0.2-0.1-0.6-0.4-0.9-0.5l-6.8-3.2
	c-10.9-5.2-23.8-0.9-29.5,9.7L746.1,393.5c-2.3,4.4-3.6,9.4-3.6,14.4l0,0c0,16.9,13.7,30.6,30.6,30.6l0,0h164v71.2
	c0,14.9,12.1,27,27,27l0,0l0,0c14.9,0,27-12.1,27-27l0,0v-71.2h38.2c12.7,0,23.1-10.4,23.1-23.1l0,0l0,0
	C1052.3,402.7,1042.1,392.3,1029.2,392.3L1029.2,392.3z"/>
<g>
	<path class="st21" d="M536.7,106.8c-92.5,0-158.9,59.3-158.9,197.8c0,156.9,66.4,198.5,158.9,198.5s162.9-45.5,162.9-198.5
		C699.6,141.1,629.2,106.8,536.7,106.8z M537.3,451c-64,0-97.6-37.6-97.6-146.3c0-95.9,34.8-146.4,98.9-146.4
		c64,0,98.9,33.2,98.9,146.4C637.6,410.7,601.4,451,537.3,451L537.3,451z"/>
	<path class="st15" d="M515.6,118.7c-92.5,0-158.9,59.3-158.9,197.8c0,156.9,66.4,198.5,158.9,198.5s162.9-45.5,162.9-198.5
		C678.5,153,608.1,118.7,515.6,118.7z M516.2,462.9c-64,0-97.6-37.6-97.6-146.3c0-95.9,34.8-146.4,98.9-146.4s98.9,33.2,98.9,146.4
		C616.5,422.5,580.3,462.9,516.2,462.9z"/>
</g>
</svg>
